<svg width="410" height="87" viewBox="0 0 410 87" fill="none" xmlns="http://www.w3.org/2000/svg">
<g filter="url(#filter0_d_31_224)">
<rect x="5" y="1" width="400" height="77" fill="#FF5D52"/>
</g>
<path d="M157.311 26.488V30.808C157.311 36.312 155.039 42.008 150.047 44.344L152.607 47.768C158.207 45.016 160.767 38.136 160.767 30.808V26.488H157.311ZM158.175 26.488V30.808C158.175 37.912 160.511 44.504 165.855 47.224L168.415 43.832C163.679 41.528 161.567 36.12 161.567 30.808V26.488H158.175ZM169.599 24.216V53.848H173.887V24.216H169.599ZM172.927 35.608V39.16H178.175V35.608H172.927ZM187.493 27.512V30.008C187.493 33.752 185.349 37.592 180.421 39.192L182.597 42.52C188.293 40.664 191.013 35.608 191.013 30.008V27.512H187.493ZM188.357 27.512V30.008C188.357 35.384 191.045 40.216 196.613 41.976L198.789 38.68C193.957 37.144 191.845 33.528 191.845 30.008V27.512H188.357ZM181.541 26.328V29.688H197.669V26.328H181.541ZM200.645 24.248V45.624H204.933V24.248H200.645ZM185.189 49.944V53.336H205.669V49.944H185.189ZM185.189 43.704V51.64H189.445V43.704H185.189ZM229.022 43.16V46.52H245.822V53.848H250.11V43.16H229.022ZM245.822 24.216V41.848H250.11V24.216H245.822ZM228.574 27.768V29.464C228.574 32.856 227.55 36.408 224.254 38.2L226.462 41.24C230.494 39.096 231.582 34.296 231.582 29.464V27.768H228.574ZM229.662 27.768V29.464C229.662 33.848 230.558 39.16 234.718 41.528L236.574 38.456C233.31 36.312 232.542 32.568 232.542 29.464V27.768H229.662ZM236.894 27.768V29.464C236.894 32.6 236.158 36.344 232.894 38.456L234.718 41.528C238.91 39.192 239.806 33.912 239.806 29.464V27.768H236.894ZM237.918 27.768V29.464C237.918 34.296 239.006 39.064 243.07 41.24L245.246 38.2C241.918 36.408 240.958 32.856 240.958 29.464V27.768H237.918ZM225.374 26.168V29.528H234.174V26.168H225.374ZM235.294 26.168V29.528H243.806V26.168H235.294ZM274.884 24.216V53.848H279.172V24.216H274.884ZM266.148 27.288V28.056C266.148 35.992 263.076 41.368 254.564 45.464L256.772 48.856C267.3 43.768 270.372 36.344 270.372 27.288H266.148ZM256.132 27.288V30.648H268.164V27.288H256.132Z" fill="white"/>
<defs>
<filter id="filter0_d_31_224" x="0" y="0" width="410" height="87" filterUnits="userSpaceOnUse" color-interpolation-filters="sRGB">
<feFlood flood-opacity="0" result="BackgroundImageFix"/>
<feColorMatrix in="SourceAlpha" type="matrix" values="0 0 0 0 0 0 0 0 0 0 0 0 0 0 0 0 0 0 127 0" result="hardAlpha"/>
<feOffset dy="4"/>
<feGaussianBlur stdDeviation="2.5"/>
<feComposite in2="hardAlpha" operator="out"/>
<feColorMatrix type="matrix" values="0 0 0 0 0 0 0 0 0 0 0 0 0 0 0 0 0 0 0.1 0"/>
<feBlend mode="normal" in2="BackgroundImageFix" result="effect1_dropShadow_31_224"/>
<feBlend mode="normal" in="SourceGraphic" in2="effect1_dropShadow_31_224" result="shape"/>
</filter>
</defs>
</svg>
