<svg width="410" height="87" viewBox="0 0 410 87" fill="none" xmlns="http://www.w3.org/2000/svg">
<g filter="url(#filter0_d_31_221)">
<rect x="5" y="1" width="400" height="77" fill="#00C5E5"/>
</g>
<path d="M60.312 40.136V43.528H87.128V40.136H60.312ZM71.608 35.688V41.448H75.832V35.688H71.608ZM63.544 34.344V37.704H84.088V34.344H63.544ZM63.544 27.496V36.488H67.768V30.824H83.928V27.496H63.544ZM73.624 45C67.224 45 63.32 46.952 63.32 50.44C63.32 53.928 67.224 55.88 73.624 55.88C80.024 55.88 83.896 53.928 83.896 50.44C83.896 46.952 80.024 45 73.624 45ZM73.624 48.2C77.592 48.2 79.608 48.936 79.608 50.44C79.608 51.976 77.592 52.648 73.624 52.648C69.656 52.648 67.64 51.976 67.64 50.44C67.64 48.936 69.656 48.2 73.624 48.2ZM92.7975 45.128V48.488H113.886V45.128H92.7975ZM92.5095 52.04V55.4H114.206V52.04H92.5095ZM96.7335 46.344V55.08H100.926V46.344H96.7335ZM105.758 46.344V55.08H109.95V46.344H105.758ZM101.15 41.16V45.832H105.438V41.16H101.15ZM89.9175 39.336V42.728H116.702V39.336H89.9175ZM101.15 26.536V27.432C101.15 30.504 97.8855 33.832 91.2295 34.632L92.7335 37.928C100.382 36.936 104.798 32.648 104.798 27.432V26.536H101.15ZM101.854 26.536V27.432C101.854 32.616 106.238 36.936 113.886 37.928L115.39 34.632C108.766 33.832 105.502 30.472 105.502 27.432V26.536H101.854ZM137.981 29.512V30.376C137.981 33.416 134.845 36.744 128.317 37.544L129.885 40.872C137.405 39.848 141.661 35.592 141.661 30.376V29.512H137.981ZM139.197 29.512V30.376C139.197 35.592 143.453 39.848 151.005 40.872L152.541 37.544C146.013 36.744 142.877 33.416 142.877 30.376V29.512H139.197ZM138.205 45V55.88H142.429V45H138.205ZM127.037 42.568V45.96H153.821V42.568H127.037ZM129.405 27.72V31.08H151.389V27.72H129.405ZM158.147 28.552V42.888H172.515V28.552H158.147ZM168.355 31.912V39.528H162.307V31.912H168.355ZM176.995 26.248V47.304H181.283V26.248H176.995ZM161.539 51.816V55.24H182.019V51.816H161.539ZM161.539 45.384V53.32H165.795V45.384H161.539ZM200.386 31.144V32.232C200.386 35.432 198.306 38.6 193.506 39.88L195.458 43.208C201.122 41.672 203.81 37.256 203.81 32.232V31.144H200.386ZM201.186 31.144V32.232C201.186 37 203.842 41.224 209.57 42.664L211.458 39.4C206.69 38.184 204.642 35.176 204.642 32.232V31.144H201.186ZM194.562 29.064V32.392H210.466V29.064H194.562ZM200.386 26.12V30.6H204.642V26.12H200.386ZM212.802 26.216V43.08H217.058V26.216H212.802ZM215.874 32.84V36.328H220.994V32.84H215.874ZM205.25 45.768V46.472C205.25 49.032 202.498 51.784 196.322 52.52L197.858 55.752C204.994 54.824 208.834 51.08 208.834 46.472V45.768H205.25ZM206.178 45.768V46.472C206.178 50.952 210.018 54.888 217.186 55.816L218.69 52.584C212.61 51.784 209.794 48.936 209.794 46.472V45.768H206.178ZM197.57 44.36V47.72H217.442V44.36H197.57ZM236.775 27.688C230.535 27.688 225.703 31.112 225.703 36.264C225.703 41.448 230.535 44.84 236.775 44.84C243.015 44.84 247.847 41.448 247.847 36.264C247.847 31.112 243.015 27.688 236.775 27.688ZM236.775 31.144C240.807 31.144 243.687 33.064 243.687 36.264C243.687 39.432 240.807 41.352 236.775 41.352C232.743 41.352 229.863 39.432 229.863 36.264C229.863 33.064 232.743 31.144 236.775 31.144ZM223.399 48.808V52.296H250.215V48.808H223.399ZM273.549 26.184V55.912H277.805V26.184H273.549ZM268.909 36.872V40.296H274.413V36.872H268.909ZM254.029 45.544V49.064H256.461C261.389 49.064 265.357 48.904 269.741 48.168L269.357 44.712C265.069 45.448 261.261 45.544 256.461 45.544H254.029ZM253.965 28.712V32.104H263.117V36.488H254.029V46.6H258.253V39.848H267.309V28.712H253.965ZM309.037 26.184V55.816H313.325V26.184H309.037ZM312.205 37.512V41H317.421V37.512H312.205ZM301.261 29.256V29.992C301.261 38.024 297.581 43.464 289.805 47.496L292.173 50.728C302.029 45.768 305.421 38.152 305.421 29.256H301.261ZM291.437 29.256V32.68H303.437V29.256H291.437ZM340.146 26.216V55.848H344.434V26.216H340.146ZM331.41 29.288V30.056C331.41 37.992 328.338 43.368 319.826 47.464L322.034 50.856C332.562 45.768 335.634 38.344 335.634 29.288H331.41ZM321.394 29.288V32.648H333.426V29.288H321.394ZM356.754 48.968L373.17 42.632V39.304L356.754 32.936V36.84L363.474 39.144L368.402 40.904V41.032L363.474 42.76L356.754 45.064V48.968Z" fill="white"/>
<defs>
<filter id="filter0_d_31_221" x="0" y="0" width="410" height="87" filterUnits="userSpaceOnUse" color-interpolation-filters="sRGB">
<feFlood flood-opacity="0" result="BackgroundImageFix"/>
<feColorMatrix in="SourceAlpha" type="matrix" values="0 0 0 0 0 0 0 0 0 0 0 0 0 0 0 0 0 0 127 0" result="hardAlpha"/>
<feOffset dy="4"/>
<feGaussianBlur stdDeviation="2.5"/>
<feComposite in2="hardAlpha" operator="out"/>
<feColorMatrix type="matrix" values="0 0 0 0 0 0 0 0 0 0 0 0 0 0 0 0 0 0 0.1 0"/>
<feBlend mode="normal" in2="BackgroundImageFix" result="effect1_dropShadow_31_221"/>
<feBlend mode="normal" in="SourceGraphic" in2="effect1_dropShadow_31_221" result="shape"/>
</filter>
</defs>
</svg>
